<?xml version="1.0" ?><!DOCTYPE svg  PUBLIC '-//W3C//DTD SVG 1.1//EN'  'http://www.w3.org/Graphics/SVG/1.1/DTD/svg11.dtd'><svg height="100%" style="fill-rule:evenodd;clip-rule:evenodd;stroke-linejoin:round;stroke-miterlimit:2;" version="1.1" viewBox="0 0 32 32" width="100%" xml:space="preserve" xmlns="http://www.w3.org/2000/svg" xmlns:serif="http://www.serif.com/" xmlns:xlink="http://www.w3.org/1999/xlink"><path d="M15.002,4.05c-2.287,0.228 -4.437,1.24 -6.077,2.88c-1.875,1.875 -2.929,4.419 -2.929,7.072l-0,5.998l-1.083,0c-1.655,0 -2.996,1.341 -2.996,2.996l-0,0.004c-0,0.794 0.315,1.557 0.877,2.118c0.562,0.562 1.324,0.878 2.119,0.878l8.254,-0c-0.111,0.313 -0.171,0.651 -0.171,1.002c-0,1.657 1.345,3.002 3.002,3.002c1.657,0 3.002,-1.345 3.002,-3.002c0,-0.351 -0.06,-0.689 -0.172,-1.002l8.176,-0c0.795,-0 1.557,-0.316 2.118,-0.878c0.562,-0.561 0.878,-1.324 0.878,-2.118l0,-0.004c-0,-1.655 -1.341,-2.996 -2.996,-2.996c-0,-0 -1.004,-0 -1.004,-0c-0,0 -0,-5.998 -0,-5.998c0,-2.653 -1.054,-5.197 -2.93,-7.072c-1.637,-1.638 -3.784,-2.649 -6.068,-2.879l0,-1.051c0,-0.552 -0.448,-1 -1,-1c-0.552,0 -1,0.448 -1,1l0,1.05Zm0.996,21.946c0.553,-0 1.002,0.449 1.002,1.002c0,0.553 -0.449,1.002 -1.002,1.002c-0.553,0 -1.002,-0.449 -1.002,-1.002c-0,-0.553 0.449,-1.002 1.002,-1.002Zm-11.085,-3.996l3.083,0l-0,-7.998c-0,-2.122 0.843,-4.158 2.344,-5.658c1.5,-1.501 3.536,-2.344 5.658,-2.344l-0,0c2.122,-0 4.158,0.843 5.658,2.344c1.501,1.5 2.344,3.536 2.344,5.658c-0,0 0,7.998 0,7.998l3.004,-0c0.55,-0 0.996,0.446 0.996,0.996c0,0 0,0.004 0,0.004c-0,0.264 -0.105,0.517 -0.292,0.704c-0.187,0.187 -0.44,0.292 -0.704,0.292l-22.091,-0c-0.265,-0 -0.518,-0.105 -0.705,-0.292c-0.186,-0.187 -0.291,-0.44 -0.291,-0.704c-0,-0 -0,-0.004 -0,-0.004c-0,-0.55 0.445,-0.996 0.996,-0.996Z"/></svg>