<?xml version="1.0" ?><!DOCTYPE svg  PUBLIC '-//W3C//DTD SVG 1.1//EN'  'http://www.w3.org/Graphics/SVG/1.1/DTD/svg11.dtd'><svg height="100%" style="fill-rule:evenodd;clip-rule:evenodd;stroke-linejoin:round;stroke-miterlimit:2;" version="1.1" viewBox="0 0 32 32" width="100%" xml:space="preserve" xmlns="http://www.w3.org/2000/svg" xmlns:serif="http://www.serif.com/" xmlns:xlink="http://www.w3.org/1999/xlink"><path d="M5.207,10.707l5,-5c0.39,-0.39 0.39,-1.024 0,-1.414c-0.39,-0.39 -1.024,-0.39 -1.414,-0l-5,5c-0.39,0.39 -0.39,1.024 -0,1.414c0.39,0.39 1.024,0.39 1.414,0Z"/><path d="M21.293,5.707l5,5c0.39,0.39 1.024,0.39 1.414,0c0.39,-0.39 0.39,-1.024 0,-1.414l-5,-5c-0.39,-0.39 -1.024,-0.39 -1.414,-0c-0.39,0.39 -0.39,1.024 -0,1.414Z"/><path d="M7.109,23.477l-2.816,2.816c-0.39,0.39 -0.39,1.024 -0,1.414c0.39,0.39 1.024,0.39 1.414,0l2.725,-2.725c1.972,1.87 4.636,3.018 7.566,3.018c2.93,-0 5.595,-1.148 7.568,-3.02l2.727,2.727c0.39,0.39 1.024,0.39 1.414,0c0.39,-0.39 0.39,-1.024 0,-1.414l-2.818,-2.818c1.326,-1.818 2.109,-4.056 2.109,-6.475c-0,-6.071 -4.929,-11 -11,-11c-6.071,-0 -11,4.929 -11,11c-0,2.421 0.783,4.66 2.111,6.477Zm2.127,-0.54c1.65,1.877 4.069,3.063 6.762,3.063c4.967,-0 9,-4.033 9,-9c-0,-4.967 -4.033,-9 -9,-9c-4.967,-0 -9,4.033 -9,9c-0,2.237 0.818,4.284 2.171,5.859c0.024,0.025 0.046,0.051 0.067,0.078Z"/><path d="M14.998,16l-5,0c-0.552,0 -1,0.448 -1,1c-0,0.552 0.448,1 1,1l5.999,-0l0.001,-0c0.552,0 1,-0.448 1,-1l0.001,-6c0,-0.552 -0.448,-1 -1,-1c-0.552,-0 -1,0.448 -1,1l-0.001,5Z"/></svg>