<?xml version="1.0" ?><!DOCTYPE svg  PUBLIC '-//W3C//DTD SVG 1.1//EN'  'http://www.w3.org/Graphics/SVG/1.1/DTD/svg11.dtd'><svg height="100%" style="fill-rule:evenodd;clip-rule:evenodd;stroke-linejoin:round;stroke-miterlimit:2;" version="1.1" viewBox="0 0 32 32" width="100%" xml:space="preserve" xmlns="http://www.w3.org/2000/svg" xmlns:serif="http://www.serif.com/" xmlns:xlink="http://www.w3.org/1999/xlink"><path d="M16.002,2.024c-7.727,-0 -14,6.273 -14,14c0,7.727 6.273,14 14,14c7.727,-0 14,-6.273 14,-14c0,-7.727 -6.273,-14 -14,-14Zm0,2c6.623,-0 12,5.377 12,12c0,6.623 -5.377,12 -12,12c-6.623,-0 -12,-5.377 -12,-12c0,-6.623 5.377,-12 12,-12Z"/><path d="M19.937,12.664c-0.101,-0.28 -0.322,-0.501 -0.602,-0.602l-9.361,-3.375c-0.365,-0.131 -0.772,-0.04 -1.046,0.234c-0.274,0.274 -0.365,0.682 -0.234,1.046l3.373,9.36c0.101,0.28 0.322,0.5 0.602,0.601l9.361,3.375c0.365,0.132 0.772,0.041 1.046,-0.233c0.274,-0.274 0.365,-0.682 0.234,-1.046l-3.373,-9.36Zm-1.722,1.12l2.492,6.916c0,0 -6.917,-2.494 -6.917,-2.494c-0,0 -2.493,-6.916 -2.493,-6.916l6.918,2.494Z"/><circle cx="16.005" cy="16" r="1"/></svg>