<?xml version="1.0" ?><!DOCTYPE svg  PUBLIC '-//W3C//DTD SVG 1.1//EN'  'http://www.w3.org/Graphics/SVG/1.1/DTD/svg11.dtd'><svg height="100%" style="fill-rule:evenodd;clip-rule:evenodd;stroke-linejoin:round;stroke-miterlimit:2;" version="1.1" viewBox="0 0 32 32" width="100%" xml:space="preserve" xmlns="http://www.w3.org/2000/svg" xmlns:serif="http://www.serif.com/" xmlns:xlink="http://www.w3.org/1999/xlink"><path d="M4.002,8.17c-1.166,0.411 -2.002,1.523 -2.002,2.83c0,3.076 0,8.933 0,12.009c-0,1.657 1.343,3 3,3l22,0c1.657,0 3,-1.343 3,-3l-0,-12.009c0,-1.657 -1.343,-3 -3,-3l-11.218,0l-0.432,-1.743c-0.332,-1.338 -1.533,-2.277 -2.912,-2.277c-1.508,-0 -3.796,-0 -5.436,-0c-0.796,-0 -1.559,0.316 -2.121,0.878c-0.563,0.563 -0.879,1.326 -0.879,2.122l0,1.19Zm23.998,7.828l0,7.011c0,0.553 -0.448,1 -1,1c-0,0 -22,0 -22,0c-0.552,0 -1,-0.447 -1,-1l-0,-7.011l24,0Zm-1,-5.998l-22,0c-0.552,0 -1,0.448 -1,1l-0,2.998l24,0l0,-2.998c0,-0.552 -0.448,-1 -1,-1Zm-13.278,-2l-0.313,-1.261c-0.111,-0.446 -0.511,-0.759 -0.971,-0.759l-5.436,-0c-0.265,-0 -0.52,0.105 -0.707,0.292c-0.188,0.188 -0.293,0.442 -0.293,0.708l0,1.02l7.72,0Z"/></svg>