<?xml version="1.0" ?><!DOCTYPE svg  PUBLIC '-//W3C//DTD SVG 1.1//EN'  'http://www.w3.org/Graphics/SVG/1.1/DTD/svg11.dtd'><svg height="100%" style="fill-rule:evenodd;clip-rule:evenodd;stroke-linejoin:round;stroke-miterlimit:2;" version="1.1" viewBox="0 0 32 32" width="100%" xml:space="preserve" xmlns="http://www.w3.org/2000/svg" xmlns:serif="http://www.serif.com/" xmlns:xlink="http://www.w3.org/1999/xlink"><path d="M30,21.082c0.016,-0.104 0.016,-0.209 -0,-0.312l-0,-11.77c0,-0.796 -0.316,-1.559 -0.879,-2.121c-0.562,-0.563 -1.325,-0.879 -2.121,-0.879l-22,-0c-0.796,0 -1.559,0.316 -2.121,0.879c-0.563,0.562 -0.879,1.325 -0.879,2.121c-0,3.463 -0,10.537 -0,14c-0,0.796 0.316,1.559 0.879,2.121c0.562,0.563 1.325,0.879 2.121,0.879l22,-0c0.796,-0 1.559,-0.316 2.121,-0.879c0.563,-0.562 0.879,-1.325 0.879,-2.121l-0,-1.918Zm-8.594,2.918l-11.733,-11.593l-5.301,5.3c-0.108,0.109 -0.236,0.187 -0.372,0.235l-0,5.058c-0,0.265 0.105,0.52 0.293,0.707c0.187,0.188 0.442,0.293 0.707,0.293l16.406,-0Zm-2.604,-5.385l5.235,5.174c0.066,0.064 0.12,0.135 0.164,0.211l2.799,-0c0.265,-0 0.52,-0.105 0.707,-0.293c0.188,-0.187 0.293,-0.442 0.293,-0.707l-0,-1.669l-5.993,-5.921l-3.205,3.205Zm9.198,-0.095l0,-9.52c0,-0.265 -0.105,-0.52 -0.293,-0.707c-0.187,-0.188 -0.442,-0.293 -0.707,-0.293c0,-0 -22,-0 -22,0c-0.265,0 -0.52,0.105 -0.707,0.293c-0.188,0.187 -0.293,0.442 -0.293,0.707l-0,6.251l4.961,-4.961c0.389,-0.389 1.019,-0.391 1.41,-0.004l7.008,6.924l3.917,-3.917c0.389,-0.389 1.019,-0.391 1.41,-0.004l5.294,5.231Z"/><circle cx="25" cy="11" r="1"/></svg>