<?xml version="1.0" ?><!DOCTYPE svg  PUBLIC '-//W3C//DTD SVG 1.1//EN'  'http://www.w3.org/Graphics/SVG/1.1/DTD/svg11.dtd'><svg height="100%" style="fill-rule:evenodd;clip-rule:evenodd;stroke-linejoin:round;stroke-miterlimit:2;" version="1.1" viewBox="0 0 32 32" width="100%" xml:space="preserve" xmlns="http://www.w3.org/2000/svg" xmlns:serif="http://www.serif.com/" xmlns:xlink="http://www.w3.org/1999/xlink"><path d="M21,6.99c-0,-2.756 -2.234,-4.99 -4.991,-4.99l-0.018,-0c-2.757,0 -4.991,2.234 -4.991,4.99c0,2.982 -0,7.038 0,10.019c0,2.757 2.234,4.991 4.991,4.991l0.018,-0c2.757,-0 4.991,-2.234 4.991,-4.99l-0,-10.02Zm-2,0l-0,10.019c-0,1.652 -1.339,2.991 -2.99,2.991c-0.001,-0 -0.019,0 -0.019,0c-1.652,-0 -2.991,-1.339 -2.991,-2.99c0,-0.001 0,-10.019 0,-10.019c0,-1.652 1.339,-2.991 2.99,-2.991c0.001,-0 0.019,-0 0.019,-0c1.652,0 2.991,1.339 2.991,2.99Z"/><path d="M14.998,25.936l0,2.064l-3.998,0c-0.552,-0 -1,0.448 -1,1c-0,0.552 0.448,1 1,1l10,0c0.552,-0 1,-0.448 1,-1c-0,-0.552 -0.448,-1 -1,-1l-4.002,0l0,-2.056c5.069,-0.484 9.039,-4.759 9.039,-9.954c0,-0.552 -0.448,-1 -1,-1c-0.552,-0 -1,0.448 -1,1c0,4.415 -3.584,8 -8,8c-4.415,-0 -8,-3.585 -8,-8c0,-0.552 -0.448,-1 -1,-1c-0.552,-0 -1,0.448 -1,1c0,5.168 3.93,9.427 8.961,9.946Z"/></svg>