<?xml version="1.0" ?><!DOCTYPE svg  PUBLIC '-//W3C//DTD SVG 1.1//EN'  'http://www.w3.org/Graphics/SVG/1.1/DTD/svg11.dtd'><svg height="100%" style="fill-rule:evenodd;clip-rule:evenodd;stroke-linejoin:round;stroke-miterlimit:2;" version="1.1" viewBox="0 0 32 32" width="100%" xml:space="preserve" xmlns="http://www.w3.org/2000/svg" xmlns:serif="http://www.serif.com/" xmlns:xlink="http://www.w3.org/1999/xlink"><path d="M19.329,20.74l6.967,6.967c0.39,0.39 1.024,0.39 1.414,0c0.39,-0.39 0.39,-1.024 0,-1.414l-6.967,-6.967c1.41,-1.724 2.257,-3.927 2.257,-6.326c-0,-5.519 -4.481,-10 -10,-10c-5.519,-0 -10,4.481 -10,10c-0,5.519 4.481,10 10,10c2.4,0 4.604,-0.847 6.329,-2.26Zm-0.66,-2.097c1.44,-1.447 2.331,-3.442 2.331,-5.643c-0,-4.415 -3.585,-8 -8,-8c-4.415,-0 -8,3.585 -8,8c-0,4.415 3.585,8 8,8c2.202,0 4.198,-0.892 5.645,-2.334c0.004,-0.004 0.008,-0.008 0.012,-0.012c0.004,-0.004 0.008,-0.007 0.012,-0.011Z"/></svg>