<?xml version="1.0" ?><!DOCTYPE svg  PUBLIC '-//W3C//DTD SVG 1.1//EN'  'http://www.w3.org/Graphics/SVG/1.1/DTD/svg11.dtd'><svg height="100%" style="fill-rule:evenodd;clip-rule:evenodd;stroke-linejoin:round;stroke-miterlimit:2;" version="1.1" viewBox="0 0 32 32" width="100%" xml:space="preserve" xmlns="http://www.w3.org/2000/svg" xmlns:serif="http://www.serif.com/" xmlns:xlink="http://www.w3.org/1999/xlink"><path d="M24.545,7.421c2.14,2.244 3.455,5.281 3.455,8.622c-0,3.324 -1.301,6.347 -3.421,8.587c-0.38,0.401 -0.362,1.034 0.039,1.414c0.4,0.379 1.034,0.362 1.413,-0.039c2.46,-2.599 3.969,-6.106 3.969,-9.962c0,-3.876 -1.525,-7.399 -4.007,-10.002c-0.381,-0.399 -1.015,-0.414 -1.414,-0.034c-0.4,0.381 -0.415,1.015 -0.034,1.414Z"/><path d="M5.947,6.041c-2.483,2.603 -4.008,6.126 -4.008,10.002c0,3.856 1.51,7.363 3.969,9.962c0.38,0.401 1.013,0.418 1.414,0.039c0.401,-0.38 0.418,-1.013 0.039,-1.414c-2.12,-2.24 -3.422,-5.263 -3.422,-8.587c0,-3.341 1.315,-6.378 3.455,-8.622c0.381,-0.399 0.366,-1.033 -0.033,-1.414c-0.4,-0.38 -1.033,-0.365 -1.414,0.034Z"/><path d="M21.943,10.044c1.513,1.541 2.446,3.652 2.446,5.98c-0,2.319 -0.927,4.424 -2.43,5.964c-0.386,0.395 -0.378,1.029 0.017,1.414c0.395,0.386 1.029,0.378 1.414,-0.017c1.855,-1.9 2.999,-4.498 2.999,-7.361c-0,-2.873 -1.152,-5.479 -3.018,-7.381c-0.387,-0.394 -1.021,-0.4 -1.415,-0.014c-0.393,0.387 -0.399,1.021 -0.013,1.415Z"/><path d="M8.569,8.643c-1.867,1.902 -3.018,4.508 -3.018,7.381c-0,2.863 1.143,5.461 2.998,7.361c0.386,0.395 1.02,0.403 1.415,0.017c0.394,-0.385 0.402,-1.019 0.017,-1.414c-1.504,-1.54 -2.43,-3.645 -2.43,-5.964c-0,-2.328 0.933,-4.439 2.445,-5.98c0.387,-0.394 0.381,-1.028 -0.013,-1.415c-0.394,-0.386 -1.028,-0.38 -1.414,0.014Z"/><path d="M16,13c-1.656,0 -3,1.344 -3,3c-0,1.656 1.344,3 3,3c1.656,0 3,-1.344 3,-3c-0,-1.656 -1.344,-3 -3,-3Zm-0,2c0.552,0 1,0.448 1,1c-0,0.552 -0.448,1 -1,1c-0.552,0 -1,-0.448 -1,-1c-0,-0.552 0.448,-1 1,-1Z"/><path d="M19.182,12.845c0.814,0.814 1.318,1.938 1.318,3.179c0,1.243 -0.506,2.37 -1.323,3.184c-0.39,0.39 -0.391,1.024 -0.001,1.415c0.389,0.39 1.023,0.391 1.414,0.001c1.18,-1.177 1.91,-2.804 1.91,-4.6c-0,-1.792 -0.727,-3.417 -1.903,-4.593c-0.39,-0.39 -1.024,-0.391 -1.414,-0c-0.39,0.39 -0.391,1.023 -0.001,1.414Z"/><path d="M11.238,11.431c-1.175,1.176 -1.903,2.801 -1.903,4.593c0,1.796 0.731,3.423 1.911,4.6c0.39,0.39 1.024,0.389 1.414,-0.001c0.39,-0.391 0.389,-1.025 -0.002,-1.415c-0.817,-0.814 -1.323,-1.941 -1.323,-3.184c0,-1.241 0.504,-2.365 1.318,-3.179c0.39,-0.391 0.39,-1.024 -0,-1.414c-0.391,-0.391 -1.025,-0.39 -1.415,0Z"/></svg>